Motion_pl07
version=1
nRows=15
nColumns=43
inDegrees=yes
endheader
time	pelvis_tilt	pelvis_list	pelvis_rotation	pelvis_tx	pelvis_ty	pelvis_tz	hip_flexion_r	hip_adduction_r	hip_rotation_r	knee_angle_r	ankle_angle_r	subtalar_angle_r	mtp_angle_r	hip_flexion_l	hip_adduction_l	hip_rotation_l	knee_angle_l	ankle_angle_l	subtalar_angle_l	mtp_angle_l	lumbar_extension	lumbar_bending	lumbar_rotation	neck_flexion	neck_lateral_bending	neck_rotation	arm_flex_r	arm_add_r	arm_rot_r	elbow_flex_r	pro_sup_r	wrist_flex_r	wrist_dev_r	hand_finger_flex_r	arm_flex_l	arm_add_l	arm_rot_l	elbow_flex_l	pro_sup_l	wrist_flex_l	wrist_dev_l	hand_finger_flex_l
      0.79000000	     -2.31628897	      6.74854635	     91.39249041	     -0.00875751	      1.44071318	      0.77967622	     32.44587983	     -5.60487057	     -9.00235792	    -44.48752627	    -27.42760268	     -3.29646510	     12.91616347	     25.46952707	     -1.92966548	    -12.71884090	    -34.98951507	    -23.49157632	    -20.82916638	     19.68166024	    -49.56016596	      0.27732893	      0.35176671	    -17.34952440	      0.01581691	     -2.06477801	    -26.59122275	    -37.01233064	    -13.18292768	     67.09504120	     86.95853741	    -27.43690101	     -8.26800880	     52.34471612	    -31.61342494	    -29.52282638	    -22.40491371	     75.67242552	    -80.94018553	    -26.41258012	    -10.03961784	    -90.00021046
      0.79250000	     -2.34032360	      6.82382635	     91.40911174	     -0.00893420	      1.43233286	      0.77345413	     32.07359963	     -5.64484645	     -9.04992057	    -43.83633446	    -27.53781233	     -3.34670085	     12.90502265	     25.18683654	     -1.89637788	    -12.80695594	    -34.45190813	    -23.63787202	    -20.74947555	     19.68297081	    -49.19506185	      0.25104808	      0.34526681	    -18.09007610	      0.06946570	     -2.07741077	    -28.03054785	    -36.38602135	    -13.83419209	     66.51718184	     86.82528270	    -27.54289338	     -8.22197368	     52.25136702	    -33.04671308	    -29.03457815	    -22.98049401	     75.10297940	    -80.87309806	    -26.31092700	     -9.93039694	    -90.00021046
      0.79500000	     -2.38339106	      6.93048532	     91.42587593	     -0.00907824	      1.42397062	      0.76721284	     31.66148283	     -5.69788067	     -9.09988604	    -43.17846030	    -27.65429936	     -3.43692977	     12.89339241	     24.85214336	     -1.84595384	    -12.91505062	    -33.88159243	    -23.78144127	    -20.65213786	     19.69959186	    -48.86830480	      0.20382098	      0.36731362	    -18.83568385	      0.12696600	     -2.12139536	    -29.49159594	    -35.72802551	    -14.55130896	     65.95519131	     86.66030305	    -27.63697142	     -8.18595663	     52.14908692	    -34.42386689	    -28.58806904	    -23.51641018	     74.53383352	    -80.81935085	    -26.20607056	     -9.78423609	    -90.00021046
      0.79750000	     -2.51929082	      7.41575352	     91.34650443	     -0.00920277	      1.41647085	      0.76073158	     30.75668227	     -5.78902042	     -9.10762632	    -42.37525896	    -27.84331907	     -3.74620798	     12.98664063	     23.93492084	     -1.75015124	    -13.30297050	    -33.05656390	    -23.88949909	    -20.40587651	     19.95890108	    -48.98486583	      0.05357950	      0.64505796	    -19.38087052	      0.17459517	     -2.51474779	    -31.24282277	    -34.82844582	    -15.82707472	     65.57294335	     86.38893311	    -27.31003340	     -8.18698536	     51.70135557	    -35.46501773	    -28.39408479	    -23.50870297	     73.78407402	    -80.65029860	    -26.04855324	     -9.06272823	    -90.00021046
      0.80000000	     -2.51663891	      7.46316494	     91.32307881	     -0.00940565	      1.40783214	      0.75447771	     30.40090376	     -5.79328205	     -9.14291373	    -41.69097724	    -27.91965518	     -3.74016394	     12.98200034	     23.68004275	     -1.73405910	    -13.35186892	    -32.51041111	    -23.99697366	    -20.32039319	     19.99331530	    -48.57085313	      0.02385378	      0.64758284	    -20.20089099	      0.22776304	     -2.53000882	    -32.58811087	    -34.23043269	    -16.39834945	     65.04611088	     86.23337235	    -27.44222880	     -8.10583676	     51.60583775	    -36.93599049	    -27.86868383	    -24.08884299	     73.35774708	    -80.67976581	    -25.94177767	     -8.93933456	    -90.00021046
      0.80250000	     -2.63508208	      7.84888165	     91.28487245	     -0.00948223	      1.39999359	      0.74798413	     29.58812884	     -5.89570689	     -9.20906389	    -40.87468699	    -28.03445381	     -3.93375764	     13.10067483	     22.89089892	     -1.63849164	    -13.69342352	    -31.69559420	    -24.04851120	    -20.01230624	     20.39040183	    -48.54323342	     -0.10721487	      0.77282617	    -20.87736872	      0.26936709	     -2.75111760	    -34.07416145	    -33.42096783	    -17.28434587	     64.62262015	     85.75773533	    -27.31554340	     -7.87328545	     51.14068911	    -38.11057003	    -27.53808270	    -24.35113810	     72.69430104	    -80.99723948	    -25.67469618	     -8.34277298	    -90.00021046
      0.80500000	     -2.64260949	      7.88163982	     91.26619950	     -0.00966319	      1.39123777	      0.74170603	     29.22890346	     -5.91012235	     -9.24762650	    -40.16101864	    -28.09441565	     -3.94579755	     13.09847986	     22.63570616	     -1.60304670	    -13.72570644	    -31.10223475	    -24.13757431	    -19.93450636	     20.44382799	    -48.11533174	     -0.14493654	      0.77838003	    -21.70804407	      0.33603665	     -2.76766278	    -35.40075943	    -32.79097972	    -17.85473042	     64.14931900	     85.55910597	    -27.47432664	     -7.80325919	     51.05424896	    -39.54751598	    -27.00242197	    -24.92019918	     72.34178902	    -81.10428437	    -25.56775793	     -8.23032123	    -90.00021046
      0.80750000	     -2.68824242	      7.94451782	     91.27609987	     -0.00984030	      1.38255033	      0.73537274	     28.80677872	     -5.97346452	     -9.33449731	    -39.40708870	    -28.13972944	     -4.02356371	     13.09912103	     22.30802584	     -1.52318697	    -13.81847071	    -30.42744230	    -24.20992543	    -19.82117131	     20.52275113	    -47.72084256	     -0.19702477	      0.78125674	    -22.53073050	      0.41601348	     -2.81295981	    -36.71579992	    -32.08058418	    -18.48823528	     63.68509075	     85.26488215	    -27.64413461	     -7.70569633	     50.95538552	    -40.88547870	    -26.47756299	    -25.46968218	     71.93522747	    -81.29539415	    -25.43166151	     -8.07891285	    -90.00021046
      0.81000000	     -2.82681992	      8.51650251	     91.27637715	     -0.00992015	      1.37490446	      0.72881153	     27.72428436	     -6.11656672	     -9.48557241	    -38.50420942	    -28.20183761	     -4.24455992	     13.26763537	     21.26373301	     -1.39435842	    -14.18612504	    -29.48535268	    -24.24354468	    -19.38335817	     21.14974403	    -47.91170828	     -0.30765342	      0.89774219	    -23.14183565	      0.43240067	     -3.07469540	    -38.18627655	    -31.27158002	    -19.28582674	     63.44276930	     84.27738117	    -27.68686794	     -7.33803619	     50.52238278	    -42.03471449	    -26.24124568	    -25.61222675	     71.38758085	    -82.31390633	    -25.06465062	     -7.58903810	    -90.00021046
      0.81250000	     -2.82969177	      8.51969887	     91.27692317	     -0.01005424	      1.36591854	      0.72256331	     27.36594812	     -6.12560273	     -9.56338541	    -37.72501210	    -28.20798832	     -4.27152709	     13.27872443	     21.03487272	     -1.35494225	    -14.23541293	    -28.84557177	    -24.29785911	    -19.30094967	     21.24205435	    -47.46498285	     -0.33386027	      0.88598576	    -23.94611735	      0.50864934	     -3.05941208	    -39.45625417	    -30.61362867	    -19.84696585	     63.06735315	     84.04760503	    -27.87478198	     -7.28646273	     50.44138714	    -43.41989980	    -25.69081332	    -26.18962721	     71.10818539	    -82.45693637	    -24.93070539	     -7.52957235	    -90.00021046
      0.81500000	     -2.87118345	      8.56060090	     91.32375539	     -0.01018504	      1.35699073	      0.71626592	     26.93962240	     -6.19177364	     -9.71037191	    -36.92189110	    -28.19152987	     -4.38004880	     13.29291332	     20.73422130	     -1.27207940	    -14.32442301	    -28.13552602	    -24.34329813	    -19.14598084	     21.36992752	    -47.06623133	     -0.36364384	      0.85909803	    -24.72375571	      0.57673781	     -3.05354547	    -40.72591039	    -29.87732356	    -20.46096968	     62.73562536	     83.70346405	    -28.07437007	     -7.19054329	     50.34670771	    -44.73009196	    -25.17643270	    -26.72800882	     70.81287476	    -82.63065945	    -24.75400001	     -7.46427708	    -90.00021046
      0.81750000	     -2.91284808	      8.61440504	     91.37772827	     -0.01041210	      1.34801766	      0.70999345	     26.49463527	     -6.26621185	     -9.86730276	    -36.11324883	    -28.16218552	     -4.51503011	     13.30414294	     20.41385165	     -1.18164393	    -14.41422257	    -27.39691793	    -24.37657656	    -18.95296604	     21.50410481	    -46.69459117	     -0.37517332	      0.81198095	    -25.45566218	      0.63827590	     -3.05164498	    -41.99049061	    -29.16327344	    -21.09050884	     62.47743687	     83.31828202	    -28.27453932	     -7.08125615	     50.25491896	    -46.04322028	    -24.67825408	    -27.19731732	     70.56349419	    -82.77334929	    -24.56672888	     -7.40836618	    -90.00021046
      0.82000000	     -2.96961762	      9.21897365	     91.55316027	     -0.01058758	      1.34015474	      0.70351640	     25.28104309	     -6.38703961	    -10.31944917	    -35.08101914	    -28.14256123	     -4.81614734	     13.47204182	     19.36714950	     -1.09926899	    -14.65715433	    -26.44695152	    -24.24218762	    -18.16338329	     22.39352323	    -46.96756982	     -0.30162153	      0.80439489	    -25.90129686	      0.62897766	     -3.19106312	    -43.35891969	    -28.37571810	    -21.76549752	     62.50004807	     81.99478338	    -28.51184412	     -6.50917713	     49.82417623	    -47.23950602	    -24.43677774	    -27.29785245	     70.35814251	    -83.10250121	    -23.77740990	     -7.53098591	    -90.00021046
      0.82250000	     -2.97678921	      9.19057618	     91.55390065	     -0.01073513	      1.33086110	      0.69727926	     24.93077708	     -6.39625672	    -10.44285464	    -34.26413031	    -28.09660750	     -4.88091543	     13.48514030	     19.18295231	     -1.05043428	    -14.72125012	    -25.77723411	    -24.25735293	    -18.06305715	     22.52814052	    -46.50972990	     -0.33181575	      0.78415120	    -26.66985572	      0.66157757	     -3.13488671	    -44.58083622	    -27.70421024	    -22.33265223	     62.31192897	     81.75277399	    -28.70422775	     -6.50272486	     49.74460885	    -48.57521272	    -23.87065473	    -27.83970003	     70.21588201	    -83.12456661	    -23.60194028	     -7.48743402	    -90.00021046
      0.82500000	     -3.03917731	      9.20919821	     91.62707844	     -0.01080507	      1.32164104	      0.69104572	     24.52124658	     -6.48007853	    -10.67478905	    -33.41565707	    -28.01630625	     -5.05751078	     13.50067082	     18.90228204	     -0.94559821	    -14.80337265	    -25.04632926	    -24.23222278	    -17.82780133	     22.73474683	    -46.12223125	     -0.37630369	      0.70985831	    -27.34259121	      0.67107190	     -3.08711662	    -45.77751169	    -26.93171973	    -22.96024943	     62.19271948	     81.37557057	    -28.90252903	     -6.41439905	     49.63516210	    -49.82444739	    -23.39969218	    -28.31288827	     70.03635368	    -83.01960211	    -23.31482794	     -7.52171637	    -90.00021046
